<?xml version="1.0" encoding="utf-8" ?>
<svg baseProfile="full" height="1100" version="1.1" width="1500" xmlns="http://www.w3.org/2000/svg" xmlns:ev="http://www.w3.org/2001/xml-events" xmlns:xlink="http://www.w3.org/1999/xlink"><defs><marker id="m1" markerHeight="6" markerUnits="strokeWidth" markerWidth="8" orient="auto" refX="6" refY="3"><path d="M0,0 L6,3 L0,6 Z" fill="#424242" /></marker><marker id="m2" markerHeight="6" markerUnits="strokeWidth" markerWidth="8" orient="auto" refX="0" refY="3"><path d="M6,0 L0,3 L6,6 Z" fill="#424242" /></marker><marker id="m3" markerHeight="6" markerUnits="strokeWidth" markerWidth="8" orient="auto" refX="6" refY="3"><path d="M0,0 L6,3 L0,6 Z" fill="#424242" /></marker><marker id="m4" markerHeight="6" markerUnits="strokeWidth" markerWidth="8" orient="auto" refX="0" refY="3"><path d="M6,0 L0,3 L6,6 Z" fill="#424242" /></marker><marker id="m5" markerHeight="6" markerUnits="strokeWidth" markerWidth="8" orient="auto" refX="6" refY="3"><path d="M0,0 L6,3 L0,6 Z" fill="#9E9E9E" /></marker><marker id="m6" markerHeight="6" markerUnits="strokeWidth" markerWidth="8" orient="auto" refX="0" refY="3"><path d="M6,0 L0,3 L6,6 Z" fill="#9E9E9E" /></marker><marker id="m7" markerHeight="6" markerUnits="strokeWidth" markerWidth="8" orient="auto" refX="6" refY="3"><path d="M0,0 L6,3 L0,6 Z" fill="#424242" /></marker><marker id="m8" markerHeight="6" markerUnits="strokeWidth" markerWidth="8" orient="auto" refX="0" refY="3"><path d="M6,0 L0,3 L6,6 Z" fill="#424242" /></marker><marker id="m9" markerHeight="6" markerUnits="strokeWidth" markerWidth="8" orient="auto" refX="6" refY="3"><path d="M0,0 L6,3 L0,6 Z" fill="#424242" /></marker><marker id="m10" markerHeight="6" markerUnits="strokeWidth" markerWidth="8" orient="auto" refX="0" refY="3"><path d="M6,0 L0,3 L6,6 Z" fill="#424242" /></marker><marker id="m11" markerHeight="6" markerUnits="strokeWidth" markerWidth="8" orient="auto" refX="6" refY="3"><path d="M0,0 L6,3 L0,6 Z" fill="#424242" /></marker><marker id="m12" markerHeight="6" markerUnits="strokeWidth" markerWidth="8" orient="auto" refX="0" refY="3"><path d="M6,0 L0,3 L6,6 Z" fill="#424242" /></marker><marker id="m13" markerHeight="6" markerUnits="strokeWidth" markerWidth="8" orient="auto" refX="6" refY="3"><path d="M0,0 L6,3 L0,6 Z" fill="#9E9E9E" /></marker><marker id="m14" markerHeight="6" markerUnits="strokeWidth" markerWidth="8" orient="auto" refX="0" refY="3"><path d="M6,0 L0,3 L6,6 Z" fill="#9E9E9E" /></marker><marker id="m15" markerHeight="6" markerUnits="strokeWidth" markerWidth="8" orient="auto" refX="6" refY="3"><path d="M0,0 L6,3 L0,6 Z" fill="#424242" /></marker><marker id="m16" markerHeight="6" markerUnits="strokeWidth" markerWidth="8" orient="auto" refX="6" refY="3"><path d="M0,0 L6,3 L0,6 Z" fill="#424242" /></marker><marker id="m17" markerHeight="6" markerUnits="strokeWidth" markerWidth="8" orient="auto" refX="6" refY="3"><path d="M0,0 L6,3 L0,6 Z" fill="#424242" /></marker><marker id="m18" markerHeight="6" markerUnits="strokeWidth" markerWidth="8" orient="auto" refX="6" refY="3"><path d="M0,0 L6,3 L0,6 Z" fill="#9E9E9E" /></marker><marker id="m19" markerHeight="6" markerUnits="strokeWidth" markerWidth="8" orient="auto" refX="6" refY="3"><path d="M0,0 L6,3 L0,6 Z" fill="#9E9E9E" /></marker><marker id="m20" markerHeight="6" markerUnits="strokeWidth" markerWidth="8" orient="auto" refX="6" refY="3"><path d="M0,0 L6,3 L0,6 Z" fill="#9E9E9E" /></marker><marker id="m21" markerHeight="6" markerUnits="strokeWidth" markerWidth="8" orient="auto" refX="0" refY="3"><path d="M6,0 L0,3 L6,6 Z" fill="#9E9E9E" /></marker><marker id="m22" markerHeight="6" markerUnits="strokeWidth" markerWidth="8" orient="auto" refX="6" refY="3"><path d="M0,0 L6,3 L0,6 Z" fill="#9E9E9E" /></marker><marker id="m23" markerHeight="6" markerUnits="strokeWidth" markerWidth="8" orient="auto" refX="0" refY="3"><path d="M6,0 L0,3 L6,6 Z" fill="#9E9E9E" /></marker></defs><rect fill="white" height="1100" width="1500" x="0" y="0" /><text fill="#1a1a1a" font-family="Helvetica, Arial, sans-serif" font-size="22" font-weight="bold" text-anchor="middle" x="750.0" y="30">OpenUBA v0.0.2 — Architecture</text><text fill="#757575" font-family="Helvetica, Arial, sans-serif" font-size="12" font-weight="normal" text-anchor="middle" x="750.0" y="48">User &amp; Entity Behavior Analytics Platform</text><g><rect fill="#e8f4fd" height="120" rx="8" ry="8" stroke="#2196F3" stroke-dasharray="8,4" stroke-width="2" width="860" x="280" y="65" /><text fill="#212121" font-family="Helvetica, Arial, sans-serif" font-size="16" font-weight="bold" text-anchor="middle" text-decoration="underline" x="710.0" y="87">Frontend</text></g><text fill="#424242" font-family="Helvetica, Arial, sans-serif" font-size="13" font-weight="bold" text-anchor="middle" x="360" y="115">Next.js 14</text><text fill="#757575" font-family="Helvetica, Arial, sans-serif" font-size="10" font-weight="normal" text-anchor="middle" x="360" y="131">React 18 / TypeScript</text><text fill="#757575" font-family="Helvetica, Arial, sans-serif" font-size="10" font-weight="normal" text-anchor="middle" x="360" y="145">TailwindCSS / shadcn</text><rect fill="#ffffff" height="24" rx="4" ry="4" stroke="#2196F3" stroke-width="1.5" width="80" x="480" y="107" /><text fill="#2196F3" font-family="Helvetica, Arial, sans-serif" font-size="9" font-weight="normal" text-anchor="middle" x="520" y="123">Dashboard</text><rect fill="#ffffff" height="24" rx="4" ry="4" stroke="#2196F3" stroke-width="1.5" width="80" x="568" y="107" /><text fill="#2196F3" font-family="Helvetica, Arial, sans-serif" font-size="9" font-weight="normal" text-anchor="middle" x="608" y="123">Models</text><rect fill="#ffffff" height="24" rx="4" ry="4" stroke="#2196F3" stroke-width="1.5" width="80" x="656" y="107" /><text fill="#2196F3" font-family="Helvetica, Arial, sans-serif" font-size="9" font-weight="normal" text-anchor="middle" x="696" y="123">Anomalies</text><rect fill="#ffffff" height="24" rx="4" ry="4" stroke="#2196F3" stroke-width="1.5" width="80" x="744" y="107" /><text fill="#2196F3" font-family="Helvetica, Arial, sans-serif" font-size="9" font-weight="normal" text-anchor="middle" x="784" y="123">Cases</text><rect fill="#ffffff" height="24" rx="4" ry="4" stroke="#2196F3" stroke-width="1.5" width="80" x="832" y="107" /><text fill="#2196F3" font-family="Helvetica, Arial, sans-serif" font-size="9" font-weight="normal" text-anchor="middle" x="872" y="123">Data</text><rect fill="#ffffff" height="24" rx="4" ry="4" stroke="#2196F3" stroke-width="1.5" width="80" x="920" y="107" /><text fill="#2196F3" font-family="Helvetica, Arial, sans-serif" font-size="9" font-weight="normal" text-anchor="middle" x="960" y="123">Settings</text><rect fill="#ffffff" height="24" rx="4" ry="4" stroke="#2196F3" stroke-width="1.5" width="65" x="1020" y="107" /><text fill="#2196F3" font-family="Helvetica, Arial, sans-serif" font-size="9" font-weight="normal" text-anchor="middle" x="1052" y="123">LLM Chat</text><rect fill="#ffffff" height="24" rx="4" ry="4" stroke="#2196F3" stroke-width="1.5" width="65" x="1090" y="107" /><text fill="#2196F3" font-family="Helvetica, Arial, sans-serif" font-size="9" font-weight="normal" text-anchor="middle" x="1122" y="123">Auth/RBAC</text><text fill="#757575" font-family="Helvetica, Arial, sans-serif" font-size="9" font-weight="normal" text-anchor="start" x="500" y="165">Recharts / Apollo Client / Zustand / GraphQL Subscriptions</text><g><rect fill="#f5f5f5" height="570" rx="8" ry="8" stroke="#616161" stroke-dasharray="8,4" stroke-width="2" width="1380" x="60" y="230" /><text fill="#212121" font-family="Helvetica, Arial, sans-serif" font-size="16" font-weight="bold" text-anchor="middle" text-decoration="underline" x="750.0" y="252">Kubernetes Cluster (Kind / Production)</text></g><g><rect fill="#e8f5e9" height="235" rx="8" ry="8" stroke="#4CAF50" stroke-dasharray="8,4" stroke-width="2" width="520" x="90" y="268" /><text fill="#212121" font-family="Helvetica, Arial, sans-serif" font-size="16" font-weight="bold" text-anchor="middle" text-decoration="underline" x="350.0" y="290">Backend API</text></g><g><rect fill="#ffffff" height="45" rx="6" ry="6" stroke="#bdbdbd" stroke-width="1.5" width="230" x="105" y="303" /><text fill="#212121" font-family="Helvetica, Arial, sans-serif" font-size="11" font-weight="bold" text-anchor="middle" x="220.0" y="329.5">FastAPI</text><text fill="#757575" font-family="Helvetica, Arial, sans-serif" font-size="10" font-weight="normal" text-anchor="middle" x="220.0" y="342.5">Uvicorn ASGI / REST API</text></g><rect fill="#ffffff" height="40" rx="4" ry="4" stroke="#4CAF50" stroke-width="1.5" width="155" x="105" y="363" /><text fill="#2E7D32" font-family="Helvetica, Arial, sans-serif" font-size="10" font-weight="bold" text-anchor="middle" x="183" y="377">Auth</text><text fill="#757575" font-family="Helvetica, Arial, sans-serif" font-size="9" font-weight="normal" text-anchor="middle" x="183" y="391">JWT / RBAC</text><rect fill="#ffffff" height="28" rx="4" ry="4" stroke="#4CAF50" stroke-width="1.5" width="155" x="270" y="363" /><text fill="#2E7D32" font-family="Helvetica, Arial, sans-serif" font-size="10" font-weight="bold" text-anchor="middle" x="348" y="377">Model Orchestrator</text><rect fill="#ffffff" height="28" rx="4" ry="4" stroke="#4CAF50" stroke-width="1.5" width="155" x="435" y="363" /><text fill="#2E7D32" font-family="Helvetica, Arial, sans-serif" font-size="10" font-weight="bold" text-anchor="middle" x="513" y="377">Rule Engine</text><rect fill="#ffffff" height="40" rx="4" ry="4" stroke="#4CAF50" stroke-width="1.5" width="155" x="105" y="418" /><text fill="#2E7D32" font-family="Helvetica, Arial, sans-serif" font-size="10" font-weight="bold" text-anchor="middle" x="183" y="432">Scheduler</text><text fill="#757575" font-family="Helvetica, Arial, sans-serif" font-size="9" font-weight="normal" text-anchor="middle" x="183" y="446">APScheduler</text><rect fill="#ffffff" height="40" rx="4" ry="4" stroke="#4CAF50" stroke-width="1.5" width="155" x="270" y="418" /><text fill="#2E7D32" font-family="Helvetica, Arial, sans-serif" font-size="10" font-weight="bold" text-anchor="middle" x="348" y="432">Chat Service</text><text fill="#757575" font-family="Helvetica, Arial, sans-serif" font-size="9" font-weight="normal" text-anchor="middle" x="348" y="446">SSE Streaming</text><rect fill="#ffffff" height="28" rx="4" ry="4" stroke="#4CAF50" stroke-width="1.5" width="155" x="435" y="418" /><text fill="#2E7D32" font-family="Helvetica, Arial, sans-serif" font-size="10" font-weight="bold" text-anchor="middle" x="513" y="432">Notifications</text><g><rect fill="#e3f2fd" height="100" rx="8" ry="8" stroke="#1565C0" stroke-dasharray="8,4" stroke-width="2" width="200" x="640" y="268" /><text fill="#212121" font-family="Helvetica, Arial, sans-serif" font-size="16" font-weight="bold" text-anchor="middle" text-decoration="underline" x="740.0" y="290">PostGraphile</text></g><text fill="#1565C0" font-family="Helvetica, Arial, sans-serif" font-size="10" font-weight="normal" text-anchor="middle" x="740.0" y="318">GraphQL Auto-Schema</text><text fill="#757575" font-family="Helvetica, Arial, sans-serif" font-size="10" font-weight="normal" text-anchor="middle" x="740.0" y="334">from PostgreSQL</text><text fill="#757575" font-family="Helvetica, Arial, sans-serif" font-size="9" font-weight="normal" text-anchor="middle" x="740.0" y="350">Subscriptions / Mutations</text><g><rect fill="#fce4ec" height="95" rx="8" ry="8" stroke="#c62828" stroke-dasharray="8,4" stroke-width="2" width="200" x="640" y="395" /><text fill="#212121" font-family="Helvetica, Arial, sans-serif" font-size="16" font-weight="bold" text-anchor="middle" text-decoration="underline" x="740.0" y="417">OpenUBA Operator</text></g><text fill="#c62828" font-family="Helvetica, Arial, sans-serif" font-size="10" font-weight="normal" text-anchor="middle" x="740.0" y="443">Kopf Framework</text><text fill="#757575" font-family="Helvetica, Arial, sans-serif" font-size="9" font-weight="normal" text-anchor="middle" x="740.0" y="459">Watches CRDs:</text><text fill="#c62828" font-family="Helvetica, Arial, sans-serif" font-size="9" font-weight="normal" text-anchor="middle" x="740.0" y="473">UBATraining / UBAInference</text><g><rect fill="#fff3e0" height="225" rx="8" ry="8" stroke="#FF9800" stroke-dasharray="8,4" stroke-width="2" width="520" x="90" y="555" /><text fill="#212121" font-family="Helvetica, Arial, sans-serif" font-size="16" font-weight="bold" text-anchor="middle" text-decoration="underline" x="350.0" y="577">Data Layer</text></g><g><rect fill="#ffffff" height="48" rx="6" ry="6" stroke="#bdbdbd" stroke-width="1.5" width="155" x="105" y="593" /><text fill="#212121" font-family="Helvetica, Arial, sans-serif" font-size="11" font-weight="bold" text-anchor="middle" x="182.5" y="621.0">PostgreSQL 15</text><text fill="#757575" font-family="Helvetica, Arial, sans-serif" font-size="10" font-weight="normal" text-anchor="middle" x="182.5" y="634.0">System of Record</text></g><text fill="#757575" font-family="Helvetica, Arial, sans-serif" font-size="8" font-weight="normal" text-anchor="middle" x="182" y="655">Models / Runs / Anomalies</text><text fill="#757575" font-family="Helvetica, Arial, sans-serif" font-size="8" font-weight="normal" text-anchor="middle" x="182" y="666">Cases / Rules / Users / Logs</text><g><rect fill="#ffffff" height="48" rx="6" ry="6" stroke="#bdbdbd" stroke-width="1.5" width="155" x="275" y="593" /><text fill="#212121" font-family="Helvetica, Arial, sans-serif" font-size="11" font-weight="bold" text-anchor="middle" x="352.5" y="621.0">Elasticsearch 8.x</text><text fill="#757575" font-family="Helvetica, Arial, sans-serif" font-size="10" font-weight="normal" text-anchor="middle" x="352.5" y="634.0">Search &amp; Analytics</text></g><text fill="#757575" font-family="Helvetica, Arial, sans-serif" font-size="8" font-weight="normal" text-anchor="middle" x="352" y="655">Event Indexing / Anomalies</text><text fill="#757575" font-family="Helvetica, Arial, sans-serif" font-size="8" font-weight="normal" text-anchor="middle" x="352" y="666">Kibana Dashboards</text><g><rect fill="#ffffff" height="48" rx="6" ry="6" stroke="#bdbdbd" stroke-width="1.5" width="155" x="445" y="593" /><text fill="#212121" font-family="Helvetica, Arial, sans-serif" font-size="11" font-weight="bold" text-anchor="middle" x="522.5" y="621.0">Apache Spark</text><text fill="#757575" font-family="Helvetica, Arial, sans-serif" font-size="10" font-weight="normal" text-anchor="middle" x="522.5" y="634.0">Distributed Compute</text></g><text fill="#757575" font-family="Helvetica, Arial, sans-serif" font-size="8" font-weight="normal" text-anchor="middle" x="522" y="655">PySpark / MLlib</text><text fill="#757575" font-family="Helvetica, Arial, sans-serif" font-size="8" font-weight="normal" text-anchor="middle" x="522" y="666">Master + Worker Pods</text><text fill="#FF9800" font-family="Helvetica, Arial, sans-serif" font-size="13" font-weight="bold" text-anchor="middle" x="350.0" y="695">Persistent Volumes</text><rect fill="#fff8e1" height="22" rx="3" ry="3" stroke="#FF9800" stroke-width="1.5" width="78" x="110" y="710" /><text fill="#E65100" font-family="Helvetica, Arial, sans-serif" font-size="7" font-weight="normal" text-anchor="middle" x="149" y="725">model-storage</text><rect fill="#fff8e1" height="22" rx="3" ry="3" stroke="#FF9800" stroke-width="1.5" width="78" x="193" y="710" /><text fill="#E65100" font-family="Helvetica, Arial, sans-serif" font-size="7" font-weight="normal" text-anchor="middle" x="232" y="725">saved-models</text><rect fill="#fff8e1" height="22" rx="3" ry="3" stroke="#FF9800" stroke-width="1.5" width="78" x="276" y="710" /><text fill="#E65100" font-family="Helvetica, Arial, sans-serif" font-size="7" font-weight="normal" text-anchor="middle" x="315" y="725">datasets</text><rect fill="#fff8e1" height="22" rx="3" ry="3" stroke="#FF9800" stroke-width="1.5" width="78" x="359" y="710" /><text fill="#E65100" font-family="Helvetica, Arial, sans-serif" font-size="7" font-weight="normal" text-anchor="middle" x="398" y="725">system-storage</text><rect fill="#fff8e1" height="22" rx="3" ry="3" stroke="#FF9800" stroke-width="1.5" width="78" x="442" y="710" /><text fill="#E65100" font-family="Helvetica, Arial, sans-serif" font-size="7" font-weight="normal" text-anchor="middle" x="481" y="725">postgres</text><rect fill="#fff8e1" height="22" rx="3" ry="3" stroke="#FF9800" stroke-width="1.5" width="78" x="525" y="710" /><text fill="#E65100" font-family="Helvetica, Arial, sans-serif" font-size="7" font-weight="normal" text-anchor="middle" x="564" y="725">elasticsearch</text><g><rect fill="#f3e5f5" height="340" rx="8" ry="8" stroke="#9C27B0" stroke-dasharray="8,4" stroke-width="2" width="550" x="870" y="268" /><text fill="#212121" font-family="Helvetica, Arial, sans-serif" font-size="16" font-weight="bold" text-anchor="middle" text-decoration="underline" x="1145.0" y="290">Model Execution Plane</text></g><text fill="#9C27B0" font-family="Helvetica, Arial, sans-serif" font-size="11" font-weight="normal" text-anchor="middle" x="1145.0" y="313">Ephemeral K8s Jobs (JIT)</text><rect fill="#ffffff" height="68" rx="6" ry="6" stroke="#9C27B0" stroke-width="1.5" width="245" x="895" y="326" /><text fill="#6A1B9A" font-family="Helvetica, Arial, sans-serif" font-size="11" font-weight="bold" text-anchor="middle" x="1017" y="346">model-runner:sklearn</text><text fill="#757575" font-family="Helvetica, Arial, sans-serif" font-size="9" font-weight="normal" text-anchor="middle" x="1017" y="364">scikit-learn / joblib</text><text fill="#9E9E9E" font-family="Helvetica, Arial, sans-serif" font-size="8" font-weight="normal" text-anchor="middle" x="1017" y="381">Docker Container</text><rect fill="#ffffff" height="68" rx="6" ry="6" stroke="#9C27B0" stroke-width="1.5" width="245" x="1155" y="326" /><text fill="#6A1B9A" font-family="Helvetica, Arial, sans-serif" font-size="11" font-weight="bold" text-anchor="middle" x="1277" y="346">model-runner:pytorch</text><text fill="#757575" font-family="Helvetica, Arial, sans-serif" font-size="9" font-weight="normal" text-anchor="middle" x="1277" y="364">PyTorch / torch.save</text><text fill="#9E9E9E" font-family="Helvetica, Arial, sans-serif" font-size="8" font-weight="normal" text-anchor="middle" x="1277" y="381">Docker Container</text><rect fill="#ffffff" height="68" rx="6" ry="6" stroke="#9C27B0" stroke-width="1.5" width="245" x="895" y="408" /><text fill="#6A1B9A" font-family="Helvetica, Arial, sans-serif" font-size="11" font-weight="bold" text-anchor="middle" x="1017" y="428">model-runner:tensorflow</text><text fill="#757575" font-family="Helvetica, Arial, sans-serif" font-size="9" font-weight="normal" text-anchor="middle" x="1017" y="446">TensorFlow / SavedModel</text><text fill="#9E9E9E" font-family="Helvetica, Arial, sans-serif" font-size="8" font-weight="normal" text-anchor="middle" x="1017" y="463">Docker Container</text><rect fill="#ffffff" height="68" rx="6" ry="6" stroke="#9C27B0" stroke-width="1.5" width="245" x="1155" y="408" /><text fill="#6A1B9A" font-family="Helvetica, Arial, sans-serif" font-size="11" font-weight="bold" text-anchor="middle" x="1277" y="428">model-runner:networkx</text><text fill="#757575" font-family="Helvetica, Arial, sans-serif" font-size="9" font-weight="normal" text-anchor="middle" x="1277" y="446">NetworkX / graph analytics</text><text fill="#9E9E9E" font-family="Helvetica, Arial, sans-serif" font-size="8" font-weight="normal" text-anchor="middle" x="1277" y="463">Docker Container</text><rect fill="#f3e5f5" height="50" rx="6" ry="6" stroke="#9C27B0" stroke-width="1.5" width="245" x="895" y="503" /><text fill="#6A1B9A" font-family="Helvetica, Arial, sans-serif" font-size="12" font-weight="bold" text-anchor="middle" x="1017" y="524">Model Library</text><text fill="#757575" font-family="Helvetica, Arial, sans-serif" font-size="9" font-weight="normal" text-anchor="middle" x="1017" y="541">Installed models + manifests + hashes</text><rect fill="#f3e5f5" height="50" rx="6" ry="6" stroke="#9C27B0" stroke-width="1.5" width="245" x="1155" y="503" /><text fill="#6A1B9A" font-family="Helvetica, Arial, sans-serif" font-size="12" font-weight="bold" text-anchor="middle" x="1277" y="524">Artifact Storage</text><text fill="#757575" font-family="Helvetica, Arial, sans-serif" font-size="9" font-weight="normal" text-anchor="middle" x="1277" y="541">Trained checkpoints / metrics</text><g><rect fill="#fafafa" height="110" rx="8" ry="8" stroke="#9E9E9E" stroke-dasharray="8,4" stroke-width="2" width="250" x="60" y="830" /><text fill="#212121" font-family="Helvetica, Arial, sans-serif" font-size="16" font-weight="bold" text-anchor="middle" text-decoration="underline" x="185.0" y="852">Model Registries</text></g><rect fill="#ffffff" height="24" rx="4" ry="4" stroke="#9E9E9E" stroke-width="1.5" width="110" x="75" y="865" /><text fill="#424242" font-family="Helvetica, Arial, sans-serif" font-size="10" font-weight="normal" text-anchor="middle" x="130" y="881">GitHub</text><rect fill="#ffffff" height="24" rx="4" ry="4" stroke="#9E9E9E" stroke-width="1.5" width="110" x="195" y="865" /><text fill="#424242" font-family="Helvetica, Arial, sans-serif" font-size="10" font-weight="normal" text-anchor="middle" x="250" y="881">OpenUBA Hub</text><rect fill="#ffffff" height="24" rx="4" ry="4" stroke="#9E9E9E" stroke-width="1.5" width="110" x="75" y="895" /><text fill="#424242" font-family="Helvetica, Arial, sans-serif" font-size="10" font-weight="normal" text-anchor="middle" x="130" y="911">HuggingFace</text><rect fill="#ffffff" height="24" rx="4" ry="4" stroke="#9E9E9E" stroke-width="1.5" width="110" x="195" y="895" /><text fill="#424242" font-family="Helvetica, Arial, sans-serif" font-size="10" font-weight="normal" text-anchor="middle" x="250" y="911">Local FS</text><g><rect fill="#e8eaf6" height="110" rx="8" ry="8" stroke="#3F51B5" stroke-dasharray="8,4" stroke-width="2" width="160" x="340" y="830" /><text fill="#212121" font-family="Helvetica, Arial, sans-serif" font-size="16" font-weight="bold" text-anchor="middle" text-decoration="underline" x="420.0" y="852">SIEM</text></g><text fill="#3F51B5" font-family="Helvetica, Arial, sans-serif" font-size="10" font-weight="normal" text-anchor="middle" x="420.0" y="880">Any SIEM Platform</text><text fill="#757575" font-family="Helvetica, Arial, sans-serif" font-size="9" font-weight="normal" text-anchor="middle" x="420.0" y="896">Splunk / QRadar / etc.</text><text fill="#757575" font-family="Helvetica, Arial, sans-serif" font-size="9" font-weight="normal" text-anchor="middle" x="420.0" y="912">SIEM-Agnostic Design</text><g><rect fill="#e0f7fa" height="110" rx="8" ry="8" stroke="#00838F" stroke-dasharray="8,4" stroke-width="2" width="280" x="640" y="830" /><text fill="#212121" font-family="Helvetica, Arial, sans-serif" font-size="16" font-weight="bold" text-anchor="middle" text-decoration="underline" x="780.0" y="852">LLM Providers</text></g><rect fill="#ffffff" height="24" rx="4" ry="4" stroke="#00838F" stroke-width="1.5" width="120" x="660" y="865" /><text fill="#00838F" font-family="Helvetica, Arial, sans-serif" font-size="10" font-weight="normal" text-anchor="middle" x="720" y="881">Ollama (Local)</text><rect fill="#ffffff" height="24" rx="4" ry="4" stroke="#00838F" stroke-width="1.5" width="120" x="790" y="865" /><text fill="#00838F" font-family="Helvetica, Arial, sans-serif" font-size="10" font-weight="normal" text-anchor="middle" x="850" y="881">OpenAI</text><rect fill="#ffffff" height="24" rx="4" ry="4" stroke="#00838F" stroke-width="1.5" width="120" x="660" y="895" /><text fill="#00838F" font-family="Helvetica, Arial, sans-serif" font-size="10" font-weight="normal" text-anchor="middle" x="720" y="911">Claude</text><rect fill="#ffffff" height="24" rx="4" ry="4" stroke="#00838F" stroke-width="1.5" width="120" x="790" y="895" /><text fill="#00838F" font-family="Helvetica, Arial, sans-serif" font-size="10" font-weight="normal" text-anchor="middle" x="850" y="911">Gemini</text><g><rect fill="#efebe9" height="110" rx="8" ry="8" stroke="#5D4037" stroke-dasharray="8,4" stroke-width="2" width="250" x="960" y="830" /><text fill="#212121" font-family="Helvetica, Arial, sans-serif" font-size="16" font-weight="bold" text-anchor="middle" text-decoration="underline" x="1085.0" y="852">Security Analysts</text></g><rect fill="#ffffff" height="22" rx="4" ry="4" stroke="#5D4037" stroke-width="1.5" width="52" x="978" y="868" /><text fill="#5D4037" font-family="Helvetica, Arial, sans-serif" font-size="9" font-weight="normal" text-anchor="middle" x="1004" y="883">Admin</text><rect fill="#ffffff" height="22" rx="4" ry="4" stroke="#5D4037" stroke-width="1.5" width="52" x="1035" y="868" /><text fill="#5D4037" font-family="Helvetica, Arial, sans-serif" font-size="9" font-weight="normal" text-anchor="middle" x="1061" y="883">Manager</text><rect fill="#ffffff" height="22" rx="4" ry="4" stroke="#5D4037" stroke-width="1.5" width="52" x="1092" y="868" /><text fill="#5D4037" font-family="Helvetica, Arial, sans-serif" font-size="9" font-weight="normal" text-anchor="middle" x="1118" y="883">Triage</text><rect fill="#ffffff" height="22" rx="4" ry="4" stroke="#5D4037" stroke-width="1.5" width="52" x="1149" y="868" /><text fill="#5D4037" font-family="Helvetica, Arial, sans-serif" font-size="9" font-weight="normal" text-anchor="middle" x="1175" y="883">Analyst</text><text fill="#5D4037" font-family="Helvetica, Arial, sans-serif" font-size="10" font-weight="normal" text-anchor="middle" x="1085.0" y="910">Role-Based Access Control</text><text fill="#757575" font-family="Helvetica, Arial, sans-serif" font-size="9" font-weight="normal" text-anchor="middle" x="1085.0" y="924">JWT Authentication</text><g><path d="M400,185 L400,268" fill="none" marker-end="url(#m1)" marker-start="url(#m2)" stroke="#424242" stroke-width="1.5" /><g><rect fill="white" fill-opacity="0.92" height="15" rx="2" ry="2" width="63.0" x="360.5" y="216.5" /><text fill="#757575" font-family="Helvetica, Arial, sans-serif" font-size="10" text-anchor="middle" x="392.0" y="226.5">REST / SSE</text></g></g><g><path d="M740.0,185 L740.0,268" fill="none" marker-end="url(#m3)" marker-start="url(#m4)" stroke="#424242" stroke-width="1.5" /><g><rect fill="white" fill-opacity="0.92" height="15" rx="2" ry="2" width="46.5" x="708.75" y="216.5" /><text fill="#757575" font-family="Helvetica, Arial, sans-serif" font-size="10" text-anchor="middle" x="732.0" y="226.5">GraphQL</text></g></g><g><path d="M1140,125.0 L1460,125.0 L1460,885.0 L1210,885.0" fill="none" marker-end="url(#m5)" marker-start="url(#m6)" stroke="#9E9E9E" stroke-dasharray="6,3" stroke-width="1.5" /><g><rect fill="white" fill-opacity="0.92" height="15" rx="2" ry="2" width="46.5" x="1428.75" y="495.0" /><text fill="#757575" font-family="Helvetica, Arial, sans-serif" font-size="10" text-anchor="middle" x="1452.0" y="505.0">Browser</text></g></g><g><path d="M182,503 L182,593" fill="none" marker-end="url(#m7)" marker-start="url(#m8)" stroke="#424242" stroke-width="1.5" /><g><rect fill="white" fill-opacity="0.92" height="15" rx="2" ry="2" width="63.0" x="142.5" y="538.0" /><text fill="#757575" font-family="Helvetica, Arial, sans-serif" font-size="10" text-anchor="middle" x="174.0" y="548.0">SQLAlchemy</text></g></g><g><path d="M352,503 L352,593" fill="none" marker-end="url(#m9)" marker-start="url(#m10)" stroke="#424242" stroke-width="1.5" /><g><rect fill="white" fill-opacity="0.92" height="15" rx="2" ry="2" width="30.0" x="329.0" y="538.0" /><text fill="#757575" font-family="Helvetica, Arial, sans-serif" font-size="10" text-anchor="middle" x="344.0" y="548.0">HTTP</text></g></g><g><path d="M522,503 L522,593" fill="none" marker-end="url(#m11)" marker-start="url(#m12)" stroke="#424242" stroke-width="1.5" /><g><rect fill="white" fill-opacity="0.92" height="15" rx="2" ry="2" width="46.5" x="490.75" y="538.0" /><text fill="#757575" font-family="Helvetica, Arial, sans-serif" font-size="10" text-anchor="middle" x="514.0" y="548.0">PySpark</text></g></g><g><path d="M680,368 L680,547 L230,547 L230,593" fill="none" marker-end="url(#m13)" marker-start="url(#m14)" stroke="#9E9E9E" stroke-dasharray="6,3" stroke-width="1.5" /><g><rect fill="white" fill-opacity="0.92" height="15" rx="2" ry="2" width="79.5" x="415.25" y="527.0" /><text fill="#757575" font-family="Helvetica, Arial, sans-serif" font-size="10" text-anchor="middle" x="455.0" y="537.0">Introspection</text></g></g><g><path d="M610,425 L640,425" fill="none" marker-end="url(#m15)" stroke="#424242" stroke-width="1.5" /><g><rect fill="white" fill-opacity="0.92" height="15" rx="2" ry="2" width="74.0" x="588.0" y="405.0" /><text fill="#757575" font-family="Helvetica, Arial, sans-serif" font-size="10" text-anchor="middle" x="625.0" y="415.0">Creates CRDs</text></g></g><g><path d="M840,450 L870,450" fill="none" marker-end="url(#m16)" stroke="#424242" stroke-width="1.5" /><g><rect fill="white" fill-opacity="0.92" height="15" rx="2" ry="2" width="74.0" x="818.0" y="430.0" /><text fill="#757575" font-family="Helvetica, Arial, sans-serif" font-size="10" text-anchor="middle" x="855.0" y="440.0">Creates Jobs</text></g></g><g><path d="M610,318 L625,318 L625,258 L1145.0,258 L1145.0,268" fill="none" marker-end="url(#m17)" stroke="#424242" stroke-width="1.5" /><g><rect fill="white" fill-opacity="0.92" height="15" rx="2" ry="2" width="101.5" x="834.25" y="262.0" /><text fill="#757575" font-family="Helvetica, Arial, sans-serif" font-size="10" text-anchor="middle" x="885.0" y="272.0">Train / Infer API</text></g></g><g><path d="M930,608 L930,788 L150,788 L150,780" fill="none" marker-end="url(#m18)" stroke="#9E9E9E" stroke-dasharray="6,3" stroke-width="1.5" /><g><rect fill="white" fill-opacity="0.92" height="15" rx="2" ry="2" width="156.5" x="461.75" y="792.0" /><text fill="#757575" font-family="Helvetica, Arial, sans-serif" font-size="10" text-anchor="middle" x="540.0" y="802.0">Direct SQL (logs / results)</text></g></g><g><path d="M185.0,830 L185.0,788 L120,788 L120,780" fill="none" marker-end="url(#m19)" stroke="#9E9E9E" stroke-dasharray="6,3" stroke-width="1.5" /><g><rect fill="white" fill-opacity="0.92" height="15" rx="2" ry="2" width="85.0" x="134.5" y="799.0" /><text fill="#757575" font-family="Helvetica, Arial, sans-serif" font-size="10" text-anchor="middle" x="177.0" y="809.0">Install Models</text></g></g><g><path d="M420.0,830 L420.0,780" fill="none" marker-end="url(#m20)" marker-start="url(#m21)" stroke="#9E9E9E" stroke-dasharray="6,3" stroke-width="1.5" /><g><rect fill="white" fill-opacity="0.92" height="15" rx="2" ry="2" width="85.0" x="369.5" y="795.0" /><text fill="#757575" font-family="Helvetica, Arial, sans-serif" font-size="10" text-anchor="middle" x="412.0" y="805.0">Data Ingestion</text></g></g><g><path d="M720,830 L720,808 L580,808 L580,780" fill="none" marker-end="url(#m22)" marker-start="url(#m23)" stroke="#9E9E9E" stroke-dasharray="6,3" stroke-width="1.5" /><g><rect fill="white" fill-opacity="0.92" height="15" rx="2" ry="2" width="85.0" x="607.5" y="812.0" /><text fill="#757575" font-family="Helvetica, Arial, sans-serif" font-size="10" text-anchor="middle" x="650.0" y="822.0">Chat Streaming</text></g></g><text fill="#212121" font-family="Helvetica, Arial, sans-serif" font-size="13" font-weight="bold" text-anchor="start" x="60" y="968">Legend</text><rect fill="#e8f4fd" height="16" rx="3" ry="3" stroke="#2196F3" stroke-width="1.5" width="16" x="60" y="986" /><text fill="#424242" font-family="Helvetica, Arial, sans-serif" font-size="10" font-weight="normal" text-anchor="start" x="84" y="999">Frontend</text><rect fill="#e8f5e9" height="16" rx="3" ry="3" stroke="#4CAF50" stroke-width="1.5" width="16" x="200" y="986" /><text fill="#424242" font-family="Helvetica, Arial, sans-serif" font-size="10" font-weight="normal" text-anchor="start" x="224" y="999">Backend</text><rect fill="#fff3e0" height="16" rx="3" ry="3" stroke="#FF9800" stroke-width="1.5" width="16" x="340" y="986" /><text fill="#424242" font-family="Helvetica, Arial, sans-serif" font-size="10" font-weight="normal" text-anchor="start" x="364" y="999">Data / Storage</text><rect fill="#f3e5f5" height="16" rx="3" ry="3" stroke="#9C27B0" stroke-width="1.5" width="16" x="480" y="986" /><text fill="#424242" font-family="Helvetica, Arial, sans-serif" font-size="10" font-weight="normal" text-anchor="start" x="504" y="999">Execution</text><rect fill="#e0f7fa" height="16" rx="3" ry="3" stroke="#00838F" stroke-width="1.5" width="16" x="620" y="986" /><text fill="#424242" font-family="Helvetica, Arial, sans-serif" font-size="10" font-weight="normal" text-anchor="start" x="644" y="999">External</text><line stroke="#424242" stroke-width="1.5" x1="60" x2="100" y1="1016" y2="1016" /><text fill="#424242" font-family="Helvetica, Arial, sans-serif" font-size="10" font-weight="normal" text-anchor="start" x="108" y="1020">Primary data flow</text><line stroke="#9E9E9E" stroke-dasharray="6,3" stroke-width="1.5" x1="260" x2="300" y1="1016" y2="1016" /><text fill="#424242" font-family="Helvetica, Arial, sans-serif" font-size="10" font-weight="normal" text-anchor="start" x="308" y="1020">Secondary / optional</text><line stroke="#424242" stroke-width="1.5" x1="490" x2="510" y1="1016" y2="1016" /><line stroke="#424242" stroke-width="1.5" x1="510" x2="510" y1="1016" y2="1004" /><text fill="#424242" font-family="Helvetica, Arial, sans-serif" font-size="10" font-weight="normal" text-anchor="start" x="518" y="1020">Orthogonal routing</text><text fill="#BDBDBD" font-family="Helvetica, Arial, sans-serif" font-size="10" font-weight="normal" text-anchor="middle" x="750.0" y="1088">OpenUBA v0.0.2 — Kubernetes-Native UEBA Platform — github.com/GACWR/OpenUBA</text></svg>