<?xml version="1.0" encoding="utf-8" ?>
<svg baseProfile="full" height="980" version="1.1" width="1400" xmlns="http://www.w3.org/2000/svg" xmlns:ev="http://www.w3.org/2001/xml-events" xmlns:xlink="http://www.w3.org/1999/xlink"><defs><marker id="ml1" markerHeight="6" markerUnits="strokeWidth" markerWidth="8" orient="auto" refX="6" refY="3"><path d="M0,0 L6,3 L0,6 Z" fill="#2196F3" /></marker><marker id="ml2" markerHeight="6" markerUnits="strokeWidth" markerWidth="8" orient="auto" refX="6" refY="3"><path d="M0,0 L6,3 L0,6 Z" fill="#2196F3" /></marker><marker id="ml3" markerHeight="6" markerUnits="strokeWidth" markerWidth="8" orient="auto" refX="6" refY="3"><path d="M0,0 L6,3 L0,6 Z" fill="#2196F3" /></marker><marker id="ml4" markerHeight="6" markerUnits="strokeWidth" markerWidth="8" orient="auto" refX="6" refY="3"><path d="M0,0 L6,3 L0,6 Z" fill="#2196F3" /></marker><marker id="ml5" markerHeight="6" markerUnits="strokeWidth" markerWidth="8" orient="auto" refX="6" refY="3"><path d="M0,0 L6,3 L0,6 Z" fill="#1565C0" /></marker><marker id="ml6" markerHeight="6" markerUnits="strokeWidth" markerWidth="8" orient="auto" refX="6" refY="3"><path d="M0,0 L6,3 L0,6 Z" fill="#1565C0" /></marker><marker id="ml7" markerHeight="6" markerUnits="strokeWidth" markerWidth="8" orient="auto" refX="6" refY="3"><path d="M0,0 L6,3 L0,6 Z" fill="#1565C0" /></marker><marker id="ml8" markerHeight="6" markerUnits="strokeWidth" markerWidth="8" orient="auto" refX="6" refY="3"><path d="M0,0 L6,3 L0,6 Z" fill="#1565C0" /></marker><marker id="ml9" markerHeight="6" markerUnits="strokeWidth" markerWidth="8" orient="auto" refX="6" refY="3"><path d="M0,0 L6,3 L0,6 Z" fill="#9C27B0" /></marker><marker id="ml10" markerHeight="6" markerUnits="strokeWidth" markerWidth="8" orient="auto" refX="6" refY="3"><path d="M0,0 L6,3 L0,6 Z" fill="#9C27B0" /></marker><marker id="ml11" markerHeight="6" markerUnits="strokeWidth" markerWidth="8" orient="auto" refX="6" refY="3"><path d="M0,0 L6,3 L0,6 Z" fill="#9C27B0" /></marker><marker id="ml12" markerHeight="6" markerUnits="strokeWidth" markerWidth="8" orient="auto" refX="6" refY="3"><path d="M0,0 L6,3 L0,6 Z" fill="#9C27B0" /></marker><marker id="ml13" markerHeight="6" markerUnits="strokeWidth" markerWidth="8" orient="auto" refX="6" refY="3"><path d="M0,0 L6,3 L0,6 Z" fill="#9C27B0" /></marker><marker id="ml14" markerHeight="6" markerUnits="strokeWidth" markerWidth="8" orient="auto" refX="6" refY="3"><path d="M0,0 L6,3 L0,6 Z" fill="#00897B" /></marker><marker id="ml15" markerHeight="6" markerUnits="strokeWidth" markerWidth="8" orient="auto" refX="6" refY="3"><path d="M0,0 L6,3 L0,6 Z" fill="#333333" /></marker><marker id="ml16" markerHeight="6" markerUnits="strokeWidth" markerWidth="8" orient="auto" refX="6" refY="3"><path d="M0,0 L6,3 L0,6 Z" fill="#9E9E9E" /></marker><marker id="ml17" markerHeight="6" markerUnits="strokeWidth" markerWidth="8" orient="auto" refX="6" refY="3"><path d="M0,0 L6,3 L0,6 Z" fill="#424242" /></marker><marker id="ml18" markerHeight="6" markerUnits="strokeWidth" markerWidth="8" orient="auto" refX="0" refY="3"><path d="M6,0 L0,3 L6,6 Z" fill="#424242" /></marker><marker id="ml19" markerHeight="6" markerUnits="strokeWidth" markerWidth="8" orient="auto" refX="6" refY="3"><path d="M0,0 L6,3 L0,6 Z" fill="#1565C0" /></marker><marker id="ml20" markerHeight="6" markerUnits="strokeWidth" markerWidth="8" orient="auto" refX="6" refY="3"><path d="M0,0 L6,3 L0,6 Z" fill="#FF9800" /></marker><marker id="ml21" markerHeight="6" markerUnits="strokeWidth" markerWidth="8" orient="auto" refX="6" refY="3"><path d="M0,0 L6,3 L0,6 Z" fill="#9C27B0" /></marker><marker id="ml22" markerHeight="6" markerUnits="strokeWidth" markerWidth="8" orient="auto" refX="6" refY="3"><path d="M0,0 L6,3 L0,6 Z" fill="#4CAF50" /></marker></defs><rect fill="white" height="980" width="1400" x="0" y="0" /><text fill="#1a1a1a" font-family="Helvetica, Arial, sans-serif" font-size="22" font-weight="bold" text-anchor="middle" x="700.0" y="30">OpenUBA v0.0.2 — Model Library &amp; Installation Process</text><text fill="#757575" font-family="Helvetica, Arial, sans-serif" font-size="12" font-weight="normal" text-anchor="middle" x="700.0" y="48">Discovery → Browsing → Installation → Execution</text><g><circle cx="80" cy="85" fill="#37474F" r="14" /><text fill="white" font-family="Helvetica, Arial, sans-serif" font-size="14" font-weight="bold" text-anchor="middle" x="80" y="90">1</text><text fill="#37474F" font-family="Helvetica, Arial, sans-serif" font-size="14" font-weight="bold" text-anchor="start" x="104" y="90">DISCOVER</text></g><g><rect fill="#e0f2f1" height="130" rx="8" ry="8" stroke="#00897B" stroke-dasharray="8,4" stroke-width="2" width="400" x="60" y="105" /><text fill="#212121" font-family="Helvetica, Arial, sans-serif" font-size="16" font-weight="bold" text-anchor="middle" text-decoration="underline" x="260.0" y="127">OpenUBA Model Hub</text></g><text fill="#00897B" font-family="Helvetica, Arial, sans-serif" font-size="11" font-weight="bold" text-anchor="middle" x="260.0" y="151">openuba.org/registry/models.json</text><text fill="#757575" font-family="Helvetica, Arial, sans-serif" font-size="10" font-weight="normal" text-anchor="middle" x="260.0" y="169">Static JSON catalog — 7 community models</text><rect fill="#ffffff" height="22" rx="4" ry="4" stroke="#00897B" stroke-width="1.5" width="118" x="80" y="183" /><text fill="#00897B" font-family="Helvetica, Arial, sans-serif" font-size="9" font-weight="normal" text-anchor="middle" x="139" y="198">model_sklearn</text><rect fill="#ffffff" height="22" rx="4" ry="4" stroke="#00897B" stroke-width="1.5" width="118" x="205" y="183" /><text fill="#00897B" font-family="Helvetica, Arial, sans-serif" font-size="9" font-weight="normal" text-anchor="middle" x="264" y="198">model_pytorch</text><rect fill="#ffffff" height="22" rx="4" ry="4" stroke="#00897B" stroke-width="1.5" width="118" x="330" y="183" /><text fill="#00897B" font-family="Helvetica, Arial, sans-serif" font-size="9" font-weight="normal" text-anchor="middle" x="389" y="198">model_tensorflow</text><rect fill="#ffffff" height="22" rx="4" ry="4" stroke="#00897B" stroke-width="1.5" width="118" x="80" y="209" /><text fill="#00897B" font-family="Helvetica, Arial, sans-serif" font-size="9" font-weight="normal" text-anchor="middle" x="139" y="224">model_keras</text><rect fill="#ffffff" height="22" rx="4" ry="4" stroke="#00897B" stroke-width="1.5" width="118" x="205" y="209" /><text fill="#00897B" font-family="Helvetica, Arial, sans-serif" font-size="9" font-weight="normal" text-anchor="middle" x="264" y="224">model_networkx</text><rect fill="#ffffff" height="22" rx="4" ry="4" stroke="#00897B" stroke-width="1.5" width="118" x="330" y="209" /><text fill="#00897B" font-family="Helvetica, Arial, sans-serif" font-size="9" font-weight="normal" text-anchor="middle" x="389" y="224">basic_model</text><g><rect fill="#fafafa" height="130" rx="8" ry="8" stroke="#333333" stroke-dasharray="8,4" stroke-width="2" width="400" x="490" y="105" /><text fill="#212121" font-family="Helvetica, Arial, sans-serif" font-size="16" font-weight="bold" text-anchor="middle" text-decoration="underline" x="690.0" y="127">GitHub Repository</text></g><text fill="#333333" font-family="Helvetica, Arial, sans-serif" font-size="11" font-weight="bold" text-anchor="middle" x="690.0" y="151">GACWR/openuba-model-hub</text><text fill="#757575" font-family="Helvetica, Arial, sans-serif" font-size="10" font-weight="normal" text-anchor="middle" x="690.0" y="169">Raw file delivery via GitHub CDN</text><rect fill="#ffffff" height="28" rx="4" ry="4" stroke="#333333" stroke-width="1.5" width="105" x="530" y="185" /><text fill="#333333" font-family="Helvetica, Arial, sans-serif" font-size="10" font-weight="bold" text-anchor="middle" x="582" y="203">MODEL.py</text><rect fill="#ffffff" height="28" rx="4" ry="4" stroke="#333333" stroke-width="1.5" width="105" x="645" y="185" /><text fill="#333333" font-family="Helvetica, Arial, sans-serif" font-size="10" font-weight="bold" text-anchor="middle" x="697" y="203">model.yaml</text><rect fill="#ffffff" height="28" rx="4" ry="4" stroke="#333333" stroke-width="1.5" width="105" x="760" y="185" /><text fill="#333333" font-family="Helvetica, Arial, sans-serif" font-size="10" font-weight="bold" text-anchor="middle" x="812" y="203">__init__.py</text><g><rect fill="#fafafa" height="130" rx="8" ry="8" stroke="#9E9E9E" stroke-dasharray="8,4" stroke-width="2" width="420" x="920" y="105" /><text fill="#212121" font-family="Helvetica, Arial, sans-serif" font-size="16" font-weight="bold" text-anchor="middle" text-decoration="underline" x="1130.0" y="127">Other Registries</text></g><text fill="#9E9E9E" font-family="Helvetica, Arial, sans-serif" font-size="11" font-weight="bold" text-anchor="middle" x="1130.0" y="151">Pluggable Adapter Pattern</text><rect fill="#ffffff" height="30" rx="4" ry="4" stroke="#9E9E9E" stroke-width="1.5" width="190" x="940" y="165" /><text fill="#424242" font-family="Helvetica, Arial, sans-serif" font-size="10" font-weight="bold" text-anchor="middle" x="1035" y="178">Local Filesystem</text><text fill="#757575" font-family="Helvetica, Arial, sans-serif" font-size="8" font-weight="normal" text-anchor="middle" x="1035" y="190">core/model_library/</text><rect fill="#ffffff" height="30" rx="4" ry="4" stroke="#9E9E9E" stroke-width="1.5" width="190" x="1140" y="165" /><text fill="#424242" font-family="Helvetica, Arial, sans-serif" font-size="10" font-weight="bold" text-anchor="middle" x="1235" y="178">GitHub Repos</text><text fill="#757575" font-family="Helvetica, Arial, sans-serif" font-size="8" font-weight="normal" text-anchor="middle" x="1235" y="190">Any public repo</text><rect fill="#ffffff" height="30" rx="4" ry="4" stroke="#9E9E9E" stroke-width="1.5" width="190" x="940" y="201" /><text fill="#424242" font-family="Helvetica, Arial, sans-serif" font-size="10" font-weight="bold" text-anchor="middle" x="1035" y="214">HuggingFace</text><text fill="#757575" font-family="Helvetica, Arial, sans-serif" font-size="8" font-weight="normal" text-anchor="middle" x="1035" y="226">Model hub API</text><rect fill="#ffffff" height="30" rx="4" ry="4" stroke="#9E9E9E" stroke-width="1.5" width="190" x="1140" y="201" /><text fill="#424242" font-family="Helvetica, Arial, sans-serif" font-size="10" font-weight="bold" text-anchor="middle" x="1235" y="214">Custom</text><text fill="#757575" font-family="Helvetica, Arial, sans-serif" font-size="8" font-weight="normal" text-anchor="middle" x="1235" y="226">Your registry</text><g><circle cx="80" cy="280" fill="#37474F" r="14" /><text fill="white" font-family="Helvetica, Arial, sans-serif" font-size="14" font-weight="bold" text-anchor="middle" x="80" y="285">2</text><text fill="#37474F" font-family="Helvetica, Arial, sans-serif" font-size="14" font-weight="bold" text-anchor="start" x="104" y="285">BROWSE</text></g><g><rect fill="#e8f5e9" height="160" rx="8" ry="8" stroke="#4CAF50" stroke-dasharray="8,4" stroke-width="2" width="440" x="60" y="300" /><text fill="#212121" font-family="Helvetica, Arial, sans-serif" font-size="16" font-weight="bold" text-anchor="middle" text-decoration="underline" x="280.0" y="322">Registry Service (Backend)</text></g><text fill="#2E7D32" font-family="Helvetica, Arial, sans-serif" font-size="11" font-weight="bold" text-anchor="middle" x="280.0" y="346">RegistryService → Adapters</text><rect fill="#e0f2f1" height="42" rx="4" ry="4" stroke="#00897B" stroke-width="1.5" width="132" x="75" y="362" /><text fill="#00897B" font-family="Helvetica, Arial, sans-serif" font-size="10" font-weight="bold" text-anchor="middle" x="141" y="378">Hub Adapter</text><text fill="#757575" font-family="Helvetica, Arial, sans-serif" font-size="8" font-weight="normal" text-anchor="middle" x="141" y="392">fetches catalog JSON</text><rect fill="#fafafa" height="42" rx="4" ry="4" stroke="#333333" stroke-width="1.5" width="132" x="215" y="362" /><text fill="#333333" font-family="Helvetica, Arial, sans-serif" font-size="10" font-weight="bold" text-anchor="middle" x="281" y="378">GitHub Adapter</text><text fill="#757575" font-family="Helvetica, Arial, sans-serif" font-size="8" font-weight="normal" text-anchor="middle" x="281" y="392">clones model repos</text><rect fill="#fafafa" height="42" rx="4" ry="4" stroke="#9E9E9E" stroke-width="1.5" width="132" x="355" y="362" /><text fill="#9E9E9E" font-family="Helvetica, Arial, sans-serif" font-size="10" font-weight="bold" text-anchor="middle" x="421" y="378">Local FS Adapter</text><text fill="#757575" font-family="Helvetica, Arial, sans-serif" font-size="8" font-weight="normal" text-anchor="middle" x="421" y="392">scans model_library/</text><rect fill="#ffffff" height="28" rx="4" ry="4" stroke="#4CAF50" stroke-width="1.5" width="200" x="75" y="415" /><text fill="#2E7D32" font-family="Helvetica, Arial, sans-serif" font-size="10" font-weight="normal" text-anchor="middle" x="175" y="433">Cached catalog (5-min TTL)</text><rect fill="#ffffff" height="28" rx="4" ry="4" stroke="#4CAF50" stroke-width="1.5" width="200" x="285" y="415" /><text fill="#2E7D32" font-family="Helvetica, Arial, sans-serif" font-size="10" font-weight="normal" text-anchor="middle" x="385" y="433">Dedup + installed status</text><g><rect fill="#e8f4fd" height="160" rx="8" ry="8" stroke="#2196F3" stroke-dasharray="8,4" stroke-width="2" width="810" x="530" y="300" /><text fill="#212121" font-family="Helvetica, Arial, sans-serif" font-size="16" font-weight="bold" text-anchor="middle" text-decoration="underline" x="935.0" y="322">Frontend — Model Library Tab</text></g><rect fill="#ffffff" height="58" rx="4" ry="4" stroke="#2196F3" stroke-width="1.5" width="148" x="545" y="342" /><text fill="#2196F3" font-family="Helvetica, Arial, sans-serif" font-size="10" font-weight="bold" text-anchor="middle" x="619.0" y="360">Auto-Load</text><text fill="#757575" font-family="Helvetica, Arial, sans-serif" font-size="8" font-weight="normal" text-anchor="middle" x="619.0" y="374">GET /api/v1/models/search</text><text fill="#757575" font-family="Helvetica, Arial, sans-serif" font-size="8" font-weight="normal" text-anchor="middle" x="619.0" y="386">?registry_type=code</text><rect fill="#ffffff" height="58" rx="4" ry="4" stroke="#2196F3" stroke-width="1.5" width="148" x="703" y="342" /><text fill="#2196F3" font-family="Helvetica, Arial, sans-serif" font-size="10" font-weight="bold" text-anchor="middle" x="777.0" y="360">Search &amp; Filter</text><text fill="#757575" font-family="Helvetica, Arial, sans-serif" font-size="8" font-weight="normal" text-anchor="middle" x="777.0" y="374">Client-side instant</text><text fill="#757575" font-family="Helvetica, Arial, sans-serif" font-size="8" font-weight="normal" text-anchor="middle" x="777.0" y="386">filtering by name/tag</text><rect fill="#ffffff" height="58" rx="4" ry="4" stroke="#2196F3" stroke-width="1.5" width="148" x="861" y="342" /><text fill="#2196F3" font-family="Helvetica, Arial, sans-serif" font-size="10" font-weight="bold" text-anchor="middle" x="935.0" y="360">Model Table</text><text fill="#757575" font-family="Helvetica, Arial, sans-serif" font-size="8" font-weight="normal" text-anchor="middle" x="935.0" y="374">Name, framework, version</text><text fill="#757575" font-family="Helvetica, Arial, sans-serif" font-size="8" font-weight="normal" text-anchor="middle" x="935.0" y="386">install status badges</text><rect fill="#ffffff" height="58" rx="4" ry="4" stroke="#2196F3" stroke-width="1.5" width="148" x="1019" y="342" /><text fill="#2196F3" font-family="Helvetica, Arial, sans-serif" font-size="10" font-weight="bold" text-anchor="middle" x="1093.0" y="360">Detail Modal</text><text fill="#757575" font-family="Helvetica, Arial, sans-serif" font-size="8" font-weight="normal" text-anchor="middle" x="1093.0" y="374">Overview + source code</text><text fill="#757575" font-family="Helvetica, Arial, sans-serif" font-size="8" font-weight="normal" text-anchor="middle" x="1093.0" y="386">tabs, parameters, tags</text><rect fill="#ffffff" height="58" rx="4" ry="4" stroke="#2196F3" stroke-width="1.5" width="148" x="1177" y="342" /><text fill="#2196F3" font-family="Helvetica, Arial, sans-serif" font-size="10" font-weight="bold" text-anchor="middle" x="1251.0" y="360">Install Button</text><text fill="#757575" font-family="Helvetica, Arial, sans-serif" font-size="8" font-weight="normal" text-anchor="middle" x="1251.0" y="374">Progress spinner</text><text fill="#757575" font-family="Helvetica, Arial, sans-serif" font-size="8" font-weight="normal" text-anchor="middle" x="1251.0" y="386">success toast</text><g><path d="M693,371 L703,371" fill="none" marker-end="url(#ml1)" stroke="#2196F3" stroke-width="1.5" /></g><g><path d="M851,371 L861,371" fill="none" marker-end="url(#ml2)" stroke="#2196F3" stroke-width="1.5" /></g><g><path d="M1009,371 L1019,371" fill="none" marker-end="url(#ml3)" stroke="#2196F3" stroke-width="1.5" /></g><g><path d="M1167,371 L1177,371" fill="none" marker-end="url(#ml4)" stroke="#2196F3" stroke-width="1.5" /></g><rect fill="#ffffff" height="30" rx="4" ry="4" stroke="#2196F3" stroke-width="1.5" width="380" x="545" y="412" /><text fill="#2196F3" font-family="Helvetica, Arial, sans-serif" font-size="9" font-weight="normal" text-anchor="middle" x="735" y="431">Code preview fetches MODEL.py directly from GitHub raw URLs</text><rect fill="#ffffff" height="30" rx="4" ry="4" stroke="#2196F3" stroke-width="1.5" width="385" x="940" y="412" /><text fill="#757575" font-family="Helvetica, Arial, sans-serif" font-size="8" font-weight="normal" text-anchor="middle" x="1132" y="431">raw.githubusercontent.com/GACWR/openuba-model-hub/master/{path}/MODEL.py</text><g><circle cx="80" cy="505" fill="#37474F" r="14" /><text fill="white" font-family="Helvetica, Arial, sans-serif" font-size="14" font-weight="bold" text-anchor="middle" x="80" y="510">3</text><text fill="#37474F" font-family="Helvetica, Arial, sans-serif" font-size="14" font-weight="bold" text-anchor="start" x="104" y="510">INSTALL</text></g><g><rect fill="#e3f2fd" height="180" rx="8" ry="8" stroke="#1565C0" stroke-dasharray="8,4" stroke-width="2" width="860" x="60" y="525" /><text fill="#212121" font-family="Helvetica, Arial, sans-serif" font-size="16" font-weight="bold" text-anchor="middle" text-decoration="underline" x="490.0" y="547">Model Installation Pipeline</text></g><rect fill="#ffffff" height="62" rx="5" ry="5" stroke="#1565C0" stroke-width="1.5" width="155" x="78" y="565" /><text fill="#1565C0" font-family="Helvetica, Arial, sans-serif" font-size="11" font-weight="bold" text-anchor="middle" x="155.5" y="583">Register in DB</text><text fill="#757575" font-family="Helvetica, Arial, sans-serif" font-size="9" font-weight="normal" text-anchor="middle" x="155.5" y="599">POST /api/v1/models</text><text fill="#757575" font-family="Helvetica, Arial, sans-serif" font-size="9" font-weight="normal" text-anchor="middle" x="155.5" y="612">Create model record</text><circle cx="90" cy="573" fill="#1565C0" r="9" /><text fill="white" font-family="Helvetica, Arial, sans-serif" font-size="9" font-weight="bold" text-anchor="middle" x="90" y="577">1</text><rect fill="#ffffff" height="62" rx="5" ry="5" stroke="#1565C0" stroke-width="1.5" width="155" x="246" y="565" /><text fill="#1565C0" font-family="Helvetica, Arial, sans-serif" font-size="11" font-weight="bold" text-anchor="middle" x="323.5" y="583">Download Files</text><text fill="#757575" font-family="Helvetica, Arial, sans-serif" font-size="9" font-weight="normal" text-anchor="middle" x="323.5" y="599">Hub adapter fetches</text><text fill="#757575" font-family="Helvetica, Arial, sans-serif" font-size="9" font-weight="normal" text-anchor="middle" x="323.5" y="612">MODEL.py, model.yaml</text><circle cx="258" cy="573" fill="#1565C0" r="9" /><text fill="white" font-family="Helvetica, Arial, sans-serif" font-size="9" font-weight="bold" text-anchor="middle" x="258" y="577">2</text><rect fill="#ffffff" height="62" rx="5" ry="5" stroke="#1565C0" stroke-width="1.5" width="155" x="414" y="565" /><text fill="#1565C0" font-family="Helvetica, Arial, sans-serif" font-size="11" font-weight="bold" text-anchor="middle" x="491.5" y="583">Verify Integrity</text><text fill="#757575" font-family="Helvetica, Arial, sans-serif" font-size="9" font-weight="normal" text-anchor="middle" x="491.5" y="599">Compute file hashes</text><text fill="#757575" font-family="Helvetica, Arial, sans-serif" font-size="9" font-weight="normal" text-anchor="middle" x="491.5" y="612">Compare with manifest</text><circle cx="426" cy="573" fill="#1565C0" r="9" /><text fill="white" font-family="Helvetica, Arial, sans-serif" font-size="9" font-weight="bold" text-anchor="middle" x="426" y="577">3</text><rect fill="#ffffff" height="62" rx="5" ry="5" stroke="#1565C0" stroke-width="1.5" width="155" x="582" y="565" /><text fill="#1565C0" font-family="Helvetica, Arial, sans-serif" font-size="11" font-weight="bold" text-anchor="middle" x="659.5" y="583">Write to Disk</text><text fill="#757575" font-family="Helvetica, Arial, sans-serif" font-size="9" font-weight="normal" text-anchor="middle" x="659.5" y="599">model_library/&lt;slug&gt;/</text><text fill="#757575" font-family="Helvetica, Arial, sans-serif" font-size="9" font-weight="normal" text-anchor="middle" x="659.5" y="612">&lt;version&gt;/MODEL.py</text><circle cx="594" cy="573" fill="#1565C0" r="9" /><text fill="white" font-family="Helvetica, Arial, sans-serif" font-size="9" font-weight="bold" text-anchor="middle" x="594" y="577">4</text><rect fill="#ffffff" height="62" rx="5" ry="5" stroke="#1565C0" stroke-width="1.5" width="155" x="750" y="565" /><text fill="#1565C0" font-family="Helvetica, Arial, sans-serif" font-size="11" font-weight="bold" text-anchor="middle" x="827.5" y="583">Mark Installed</text><text fill="#757575" font-family="Helvetica, Arial, sans-serif" font-size="9" font-weight="normal" text-anchor="middle" x="827.5" y="599">model_versions.status</text><text fill="#757575" font-family="Helvetica, Arial, sans-serif" font-size="9" font-weight="normal" text-anchor="middle" x="827.5" y="612">= 'installed'</text><circle cx="762" cy="573" fill="#1565C0" r="9" /><text fill="white" font-family="Helvetica, Arial, sans-serif" font-size="9" font-weight="bold" text-anchor="middle" x="762" y="577">5</text><g><path d="M233,596 L246,596" fill="none" marker-end="url(#ml5)" stroke="#1565C0" stroke-width="1.5" /></g><g><path d="M401,596 L414,596" fill="none" marker-end="url(#ml6)" stroke="#1565C0" stroke-width="1.5" /></g><g><path d="M569,596 L582,596" fill="none" marker-end="url(#ml7)" stroke="#1565C0" stroke-width="1.5" /></g><g><path d="M737,596 L750,596" fill="none" marker-end="url(#ml8)" stroke="#1565C0" stroke-width="1.5" /></g><rect fill="#ffffff" height="45" rx="4" ry="4" stroke="#1565C0" stroke-width="1.5" width="410" x="78" y="640" /><text fill="#1565C0" font-family="Helvetica, Arial, sans-serif" font-size="11" font-weight="bold" text-anchor="middle" x="283" y="658">POST /api/v1/models/{id}/install</text><text fill="#757575" font-family="Helvetica, Arial, sans-serif" font-size="9" font-weight="normal" text-anchor="middle" x="283" y="674">Triggers hub adapter download → writes files → updates DB status</text><rect fill="#ffffff" height="45" rx="4" ry="4" stroke="#1565C0" stroke-width="1.5" width="400" x="500" y="640" /><text fill="#1565C0" font-family="Helvetica, Arial, sans-serif" font-size="11" font-weight="bold" text-anchor="middle" x="700" y="658">Cryptographic Verification</text><text fill="#757575" font-family="Helvetica, Arial, sans-serif" font-size="9" font-weight="normal" text-anchor="middle" x="700" y="674">SHA-256 hash check at install + before every execution</text><g><rect fill="#fff3e0" height="180" rx="8" ry="8" stroke="#FF9800" stroke-dasharray="8,4" stroke-width="2" width="390" x="950" y="525" /><text fill="#212121" font-family="Helvetica, Arial, sans-serif" font-size="16" font-weight="bold" text-anchor="middle" text-decoration="underline" x="1145.0" y="547">Storage</text></g><rect fill="#ffffff" height="58" rx="4" ry="4" stroke="#FF9800" stroke-width="1.5" width="170" x="965" y="563" /><text fill="#E65100" font-family="Helvetica, Arial, sans-serif" font-size="11" font-weight="bold" text-anchor="middle" x="1050" y="581">Model Library</text><text fill="#757575" font-family="Helvetica, Arial, sans-serif" font-size="9" font-weight="normal" text-anchor="middle" x="1050" y="595">core/model_library/</text><text fill="#757575" font-family="Helvetica, Arial, sans-serif" font-size="9" font-weight="normal" text-anchor="middle" x="1050" y="608">&lt;slug&gt;/&lt;version&gt;/</text><rect fill="#ffffff" height="58" rx="4" ry="4" stroke="#FF9800" stroke-width="1.5" width="170" x="1150" y="563" /><text fill="#E65100" font-family="Helvetica, Arial, sans-serif" font-size="11" font-weight="bold" text-anchor="middle" x="1235" y="581">PostgreSQL</text><text fill="#757575" font-family="Helvetica, Arial, sans-serif" font-size="9" font-weight="normal" text-anchor="middle" x="1235" y="595">models table</text><text fill="#757575" font-family="Helvetica, Arial, sans-serif" font-size="9" font-weight="normal" text-anchor="middle" x="1235" y="608">model_versions table</text><rect fill="#ffffff" height="55" rx="4" ry="4" stroke="#FF9800" stroke-width="1.5" width="170" x="965" y="633" /><text fill="#E65100" font-family="Helvetica, Arial, sans-serif" font-size="11" font-weight="bold" text-anchor="middle" x="1050" y="651">Artifact Storage</text><text fill="#757575" font-family="Helvetica, Arial, sans-serif" font-size="9" font-weight="normal" text-anchor="middle" x="1050" y="665">saved_models/&lt;slug&gt;/</text><text fill="#757575" font-family="Helvetica, Arial, sans-serif" font-size="9" font-weight="normal" text-anchor="middle" x="1050" y="677">&lt;version&gt;/&lt;run_id&gt;/</text><rect fill="#ffffff" height="55" rx="4" ry="4" stroke="#FF9800" stroke-width="1.5" width="170" x="1150" y="633" /><text fill="#E65100" font-family="Helvetica, Arial, sans-serif" font-size="11" font-weight="bold" text-anchor="middle" x="1235" y="651">Persistent Volumes</text><text fill="#757575" font-family="Helvetica, Arial, sans-serif" font-size="8" font-weight="normal" text-anchor="middle" x="1235" y="665">source-code-pvc</text><text fill="#757575" font-family="Helvetica, Arial, sans-serif" font-size="8" font-weight="normal" text-anchor="middle" x="1235" y="676">saved-models-pvc</text><text fill="#757575" font-family="Helvetica, Arial, sans-serif" font-size="8" font-weight="normal" text-anchor="middle" x="1235" y="687">system-storage-pvc</text><g><circle cx="80" cy="750" fill="#37474F" r="14" /><text fill="white" font-family="Helvetica, Arial, sans-serif" font-size="14" font-weight="bold" text-anchor="middle" x="80" y="755">4</text><text fill="#37474F" font-family="Helvetica, Arial, sans-serif" font-size="14" font-weight="bold" text-anchor="start" x="104" y="755">EXECUTE</text></g><g><rect fill="#f3e5f5" height="170" rx="8" ry="8" stroke="#9C27B0" stroke-dasharray="8,4" stroke-width="2" width="1280" x="60" y="770" /><text fill="#212121" font-family="Helvetica, Arial, sans-serif" font-size="16" font-weight="bold" text-anchor="middle" text-decoration="underline" x="700.0" y="792">Model Execution Pipeline</text></g><rect fill="#ffffff" height="62" rx="5" ry="5" stroke="#4CAF50" stroke-width="1.5" width="192" x="80" y="810" /><text fill="#2E7D32" font-family="Helvetica, Arial, sans-serif" font-size="11" font-weight="bold" text-anchor="middle" x="176.0" y="828">API Request</text><text fill="#757575" font-family="Helvetica, Arial, sans-serif" font-size="9" font-weight="normal" text-anchor="middle" x="176.0" y="844">POST /models/{id}/</text><text fill="#757575" font-family="Helvetica, Arial, sans-serif" font-size="9" font-weight="normal" text-anchor="middle" x="176.0" y="857">train or infer</text><rect fill="#ffffff" height="62" rx="5" ry="5" stroke="#4CAF50" stroke-width="1.5" width="192" x="287" y="810" /><text fill="#2E7D32" font-family="Helvetica, Arial, sans-serif" font-size="11" font-weight="bold" text-anchor="middle" x="383.0" y="828">Orchestrator</text><text fill="#757575" font-family="Helvetica, Arial, sans-serif" font-size="9" font-weight="normal" text-anchor="middle" x="383.0" y="844">Creates CRD spec</text><text fill="#757575" font-family="Helvetica, Arial, sans-serif" font-size="9" font-weight="normal" text-anchor="middle" x="383.0" y="857">background thread</text><rect fill="#fce4ec" height="62" rx="5" ry="5" stroke="#c62828" stroke-width="1.5" width="192" x="494" y="810" /><text fill="#c62828" font-family="Helvetica, Arial, sans-serif" font-size="11" font-weight="bold" text-anchor="middle" x="590.0" y="828">Operator</text><text fill="#757575" font-family="Helvetica, Arial, sans-serif" font-size="9" font-weight="normal" text-anchor="middle" x="590.0" y="844">Watches CRDs</text><text fill="#757575" font-family="Helvetica, Arial, sans-serif" font-size="9" font-weight="normal" text-anchor="middle" x="590.0" y="857">creates K8s Job</text><rect fill="#f3e5f5" height="62" rx="5" ry="5" stroke="#9C27B0" stroke-width="1.5" width="192" x="701" y="810" /><text fill="#6A1B9A" font-family="Helvetica, Arial, sans-serif" font-size="11" font-weight="bold" text-anchor="middle" x="797.0" y="828">K8s Job</text><text fill="#757575" font-family="Helvetica, Arial, sans-serif" font-size="9" font-weight="normal" text-anchor="middle" x="797.0" y="844">Ephemeral pod</text><text fill="#757575" font-family="Helvetica, Arial, sans-serif" font-size="9" font-weight="normal" text-anchor="middle" x="797.0" y="857">framework-specific</text><rect fill="#f3e5f5" height="62" rx="5" ry="5" stroke="#9C27B0" stroke-width="1.5" width="192" x="908" y="810" /><text fill="#6A1B9A" font-family="Helvetica, Arial, sans-serif" font-size="11" font-weight="bold" text-anchor="middle" x="1004.0" y="828">Model Runner</text><text fill="#757575" font-family="Helvetica, Arial, sans-serif" font-size="9" font-weight="normal" text-anchor="middle" x="1004.0" y="844">Loads code + data</text><text fill="#757575" font-family="Helvetica, Arial, sans-serif" font-size="9" font-weight="normal" text-anchor="middle" x="1004.0" y="857">trains or infers</text><rect fill="#fff3e0" height="62" rx="5" ry="5" stroke="#FF9800" stroke-width="1.5" width="192" x="1115" y="810" /><text fill="#E65100" font-family="Helvetica, Arial, sans-serif" font-size="11" font-weight="bold" text-anchor="middle" x="1211.0" y="828">Results</text><text fill="#757575" font-family="Helvetica, Arial, sans-serif" font-size="9" font-weight="normal" text-anchor="middle" x="1211.0" y="844">Anomalies → DB</text><text fill="#757575" font-family="Helvetica, Arial, sans-serif" font-size="9" font-weight="normal" text-anchor="middle" x="1211.0" y="857">Risk scores → ES</text><g><path d="M272,841 L287,841" fill="none" marker-end="url(#ml9)" stroke="#9C27B0" stroke-width="1.5" /></g><g><path d="M479,841 L494,841" fill="none" marker-end="url(#ml10)" stroke="#9C27B0" stroke-width="1.5" /></g><g><path d="M686,841 L701,841" fill="none" marker-end="url(#ml11)" stroke="#9C27B0" stroke-width="1.5" /></g><g><path d="M893,841 L908,841" fill="none" marker-end="url(#ml12)" stroke="#9C27B0" stroke-width="1.5" /></g><g><path d="M1100,841 L1115,841" fill="none" marker-end="url(#ml13)" stroke="#9C27B0" stroke-width="1.5" /></g><text fill="#6A1B9A" font-family="Helvetica, Arial, sans-serif" font-size="12" font-weight="bold" text-anchor="middle" x="700.0" y="890">Framework-Specific Runner Images</text><rect fill="#ffffff" height="22" rx="4" ry="4" stroke="#9C27B0" stroke-width="1.5" width="245" x="180" y="902" /><text fill="#6A1B9A" font-family="Helvetica, Arial, sans-serif" font-size="10" font-weight="bold" text-anchor="middle" x="302" y="917">model-runner:sklearn</text><rect fill="#ffffff" height="22" rx="4" ry="4" stroke="#9C27B0" stroke-width="1.5" width="245" x="450" y="902" /><text fill="#6A1B9A" font-family="Helvetica, Arial, sans-serif" font-size="10" font-weight="bold" text-anchor="middle" x="572" y="917">model-runner:pytorch</text><rect fill="#ffffff" height="22" rx="4" ry="4" stroke="#9C27B0" stroke-width="1.5" width="245" x="720" y="902" /><text fill="#6A1B9A" font-family="Helvetica, Arial, sans-serif" font-size="10" font-weight="bold" text-anchor="middle" x="842" y="917">model-runner:tensorflow</text><rect fill="#ffffff" height="22" rx="4" ry="4" stroke="#9C27B0" stroke-width="1.5" width="245" x="990" y="902" /><text fill="#6A1B9A" font-family="Helvetica, Arial, sans-serif" font-size="10" font-weight="bold" text-anchor="middle" x="1112" y="917">model-runner:networkx</text><g><path d="M260.0,235 L260.0,318 L280.0,318 L280.0,300" fill="none" marker-end="url(#ml14)" stroke="#00897B" stroke-width="1.5" /><g><rect fill="white" fill-opacity="0.92" height="15" rx="2" ry="2" width="74.0" x="233.0" y="298.0" /><text fill="#757575" font-family="Helvetica, Arial, sans-serif" font-size="10" text-anchor="middle" x="270.0" y="308.0">catalog JSON</text></g></g><g><path d="M690.0,235 L690.0,318 L1150,318 L1150,300" fill="none" marker-end="url(#ml15)" stroke="#333333" stroke-dasharray="6,3" stroke-width="1.5" /><g><rect fill="white" fill-opacity="0.92" height="15" rx="2" ry="2" width="85.0" x="877.5" y="298.0" /><text fill="#757575" font-family="Helvetica, Arial, sans-serif" font-size="10" text-anchor="middle" x="920.0" y="308.0">MODEL.py (raw)</text></g></g><g><path d="M1130.0,235 L1130.0,318 L470,318 L470,300" fill="none" marker-end="url(#ml16)" stroke="#9E9E9E" stroke-dasharray="6,3" stroke-width="1.5" /><g><rect fill="white" fill-opacity="0.92" height="15" rx="2" ry="2" width="90.5" x="754.75" y="298.0" /><text fill="#757575" font-family="Helvetica, Arial, sans-serif" font-size="10" text-anchor="middle" x="800.0" y="308.0">adapter queries</text></g></g><g><path d="M500,380 L530,380" fill="none" marker-end="url(#ml17)" marker-start="url(#ml18)" stroke="#424242" stroke-width="1.5" /><g><rect fill="white" fill-opacity="0.92" height="15" rx="2" ry="2" width="134.5" x="447.75" y="360.0" /><text fill="#757575" font-family="Helvetica, Arial, sans-serif" font-size="10" text-anchor="middle" x="515.0" y="370.0">search results + status</text></g></g><g><path d="M1190,460 L1190,543 L490.0,543 L490.0,525" fill="none" marker-end="url(#ml19)" stroke="#1565C0" stroke-width="1.5" /><g><rect fill="white" fill-opacity="0.92" height="15" rx="2" ry="2" width="79.5" x="800.25" y="523.0" /><text fill="#757575" font-family="Helvetica, Arial, sans-serif" font-size="10" text-anchor="middle" x="840.0" y="533.0">POST /install</text></g></g><g><path d="M920,605 L950,605" fill="none" marker-end="url(#ml20)" stroke="#FF9800" stroke-width="1.5" /><g><rect fill="white" fill-opacity="0.92" height="15" rx="2" ry="2" width="123.5" x="873.25" y="585.0" /><text fill="#757575" font-family="Helvetica, Arial, sans-serif" font-size="10" text-anchor="middle" x="935.0" y="595.0">write files + records</text></g></g><g><path d="M1145.0,705 L1145.0,788 L700.0,788 L700.0,770" fill="none" marker-end="url(#ml21)" stroke="#9C27B0" stroke-dasharray="6,3" stroke-width="1.5" /><g><rect fill="white" fill-opacity="0.92" height="15" rx="2" ry="2" width="63.0" x="891.0" y="768.0" /><text fill="#757575" font-family="Helvetica, Arial, sans-serif" font-size="10" text-anchor="middle" x="922.5" y="778.0">mount PVCs</text></g></g><g><path d="M260,705 L260,770" fill="none" marker-end="url(#ml22)" stroke="#4CAF50" stroke-dasharray="6,3" stroke-width="1.5" /><g><rect fill="white" fill-opacity="0.92" height="15" rx="2" ry="2" width="68.5" x="217.75" y="727.5" /><text fill="#757575" font-family="Helvetica, Arial, sans-serif" font-size="10" text-anchor="middle" x="252.0" y="737.5">model ready</text></g></g><text fill="#212121" font-family="Helvetica, Arial, sans-serif" font-size="13" font-weight="bold" text-anchor="start" x="60" y="915">Legend</text><rect fill="#e0f2f1" height="16" rx="3" ry="3" stroke="#00897B" stroke-width="1.5" width="16" x="60" y="933" /><text fill="#424242" font-family="Helvetica, Arial, sans-serif" font-size="10" font-weight="normal" text-anchor="start" x="84" y="946">Model Hub</text><rect fill="#e8f4fd" height="16" rx="3" ry="3" stroke="#2196F3" stroke-width="1.5" width="16" x="205" y="933" /><text fill="#424242" font-family="Helvetica, Arial, sans-serif" font-size="10" font-weight="normal" text-anchor="start" x="229" y="946">Frontend</text><rect fill="#e8f5e9" height="16" rx="3" ry="3" stroke="#4CAF50" stroke-width="1.5" width="16" x="350" y="933" /><text fill="#424242" font-family="Helvetica, Arial, sans-serif" font-size="10" font-weight="normal" text-anchor="start" x="374" y="946">Backend</text><rect fill="#e3f2fd" height="16" rx="3" ry="3" stroke="#1565C0" stroke-width="1.5" width="16" x="495" y="933" /><text fill="#424242" font-family="Helvetica, Arial, sans-serif" font-size="10" font-weight="normal" text-anchor="start" x="519" y="946">Installation</text><rect fill="#fff3e0" height="16" rx="3" ry="3" stroke="#FF9800" stroke-width="1.5" width="16" x="640" y="933" /><text fill="#424242" font-family="Helvetica, Arial, sans-serif" font-size="10" font-weight="normal" text-anchor="start" x="664" y="946">Storage</text><rect fill="#f3e5f5" height="16" rx="3" ry="3" stroke="#9C27B0" stroke-width="1.5" width="16" x="785" y="933" /><text fill="#424242" font-family="Helvetica, Arial, sans-serif" font-size="10" font-weight="normal" text-anchor="start" x="809" y="946">Execution</text><rect fill="#fafafa" height="16" rx="3" ry="3" stroke="#9E9E9E" stroke-width="1.5" width="16" x="930" y="933" /><text fill="#424242" font-family="Helvetica, Arial, sans-serif" font-size="10" font-weight="normal" text-anchor="start" x="954" y="946">External</text><line stroke="#424242" stroke-width="1.5" x1="60" x2="100" y1="963" y2="963" /><text fill="#424242" font-family="Helvetica, Arial, sans-serif" font-size="10" font-weight="normal" text-anchor="start" x="108" y="967">Primary flow</text><line stroke="#9E9E9E" stroke-dasharray="6,3" stroke-width="1.5" x1="240" x2="280" y1="963" y2="963" /><text fill="#424242" font-family="Helvetica, Arial, sans-serif" font-size="10" font-weight="normal" text-anchor="start" x="288" y="967">Secondary / optional</text><text fill="#BDBDBD" font-family="Helvetica, Arial, sans-serif" font-size="10" font-weight="normal" text-anchor="middle" x="700.0" y="972">OpenUBA v0.0.2 — Model Library &amp; Installation — github.com/GACWR/OpenUBA</text></svg>